<svg aria-hidden="true" style="position: absolute; width: 0; height: 0; overflow: hidden;" version="1.1" xmlns="http://www.w3.org/2000/svg"
    xmlns:xlink="http://www.w3.org/1999/xlink">
    <defs>
        <symbol id="instagram" viewBox="0 0 32 32">
            <title>instagram</title>
            <path fill="#e4405f" style="fill: var(--color1, #e4405f)" d="M16 0c-4.347 0-4.889 0.020-6.596 0.096-1.704 0.080-2.864 0.348-3.884 0.744-1.052 0.408-1.945 0.956-2.835 1.845s-1.439 1.781-1.845 2.835c-0.396 1.020-0.665 2.18-0.744 3.884-0.080 1.707-0.096 2.249-0.096 6.596s0.020 4.889 0.096 6.596c0.080 1.703 0.348 2.864 0.744 3.884 0.408 1.051 0.956 1.945 1.845 2.835 0.889 0.888 1.781 1.439 2.835 1.845 1.021 0.395 2.181 0.665 3.884 0.744 1.707 0.080 2.249 0.096 6.596 0.096s4.889-0.020 6.596-0.096c1.703-0.080 2.864-0.349 3.884-0.744 1.051-0.408 1.945-0.957 2.835-1.845 0.888-0.889 1.439-1.78 1.845-2.835 0.395-1.020 0.665-2.181 0.744-3.884 0.080-1.707 0.096-2.249 0.096-6.596s-0.020-4.889-0.096-6.596c-0.080-1.703-0.349-2.865-0.744-3.884-0.408-1.052-0.957-1.945-1.845-2.835-0.889-0.889-1.78-1.439-2.835-1.845-1.020-0.396-2.181-0.665-3.884-0.744-1.707-0.080-2.249-0.096-6.596-0.096zM16 2.88c4.271 0 4.78 0.021 6.467 0.095 1.56 0.073 2.407 0.332 2.969 0.553 0.749 0.289 1.28 0.636 1.843 1.195 0.559 0.56 0.905 1.092 1.195 1.841 0.219 0.563 0.48 1.409 0.551 2.969 0.076 1.688 0.093 2.195 0.093 6.467s-0.020 4.78-0.099 6.467c-0.081 1.56-0.341 2.407-0.561 2.969-0.299 0.749-0.639 1.28-1.199 1.843-0.559 0.559-1.099 0.905-1.84 1.195-0.56 0.219-1.42 0.48-2.98 0.551-1.699 0.076-2.199 0.093-6.479 0.093-4.281 0-4.781-0.020-6.479-0.099-1.561-0.081-2.421-0.341-2.981-0.561-0.759-0.299-1.28-0.639-1.839-1.199-0.561-0.559-0.92-1.099-1.2-1.84-0.22-0.56-0.479-1.42-0.56-2.98-0.060-1.68-0.081-2.199-0.081-6.459 0-4.261 0.021-4.781 0.081-6.481 0.081-1.56 0.34-2.419 0.56-2.979 0.28-0.76 0.639-1.28 1.2-1.841 0.559-0.559 1.080-0.919 1.839-1.197 0.56-0.221 1.401-0.481 2.961-0.561 1.7-0.060 2.2-0.080 6.479-0.080l0.060 0.040zM16 7.784c-4.54 0-8.216 3.68-8.216 8.216 0 4.54 3.68 8.216 8.216 8.216 4.54 0 8.216-3.68 8.216-8.216 0-4.54-3.68-8.216-8.216-8.216zM16 21.333c-2.947 0-5.333-2.387-5.333-5.333s2.387-5.333 5.333-5.333 5.333 2.387 5.333 5.333-2.387 5.333-5.333 5.333zM26.461 7.46c0 1.060-0.861 1.92-1.92 1.92-1.060 0-1.92-0.861-1.92-1.92s0.861-1.919 1.92-1.919c1.057-0.001 1.92 0.86 1.92 1.919z"></path>
        </symbol>
        <symbol id="twitter" viewBox="0 0 32 32">
            <title>twitter</title>
            <path fill="#1da1f2" style="fill: var(--color2, #1da1f2)" d="M31.939 6.092c-1.18 0.519-2.44 0.872-3.767 1.033 1.352-0.815 2.392-2.099 2.884-3.631-1.268 0.74-2.673 1.279-4.169 1.579-1.195-1.279-2.897-2.079-4.788-2.079-3.623 0-6.56 2.937-6.56 6.556 0 0.52 0.060 1.020 0.169 1.499-5.453-0.257-10.287-2.876-13.521-6.835-0.569 0.963-0.888 2.081-0.888 3.3 0 2.28 1.16 4.284 2.917 5.461-1.076-0.035-2.088-0.331-2.971-0.821v0.081c0 3.18 2.257 5.832 5.261 6.436-0.551 0.148-1.132 0.228-1.728 0.228-0.419 0-0.82-0.040-1.221-0.115 0.841 2.604 3.26 4.503 6.139 4.556-2.24 1.759-5.079 2.807-8.136 2.807-0.52 0-1.039-0.031-1.56-0.089 2.919 1.859 6.357 2.945 10.076 2.945 12.072 0 18.665-9.995 18.665-18.648 0-0.279 0-0.56-0.020-0.84 1.281-0.919 2.4-2.080 3.28-3.397l-0.063-0.027z"></path>
        </symbol>
        <symbol id="facebook" viewBox="0 0 32 32">
            <title>facebook</title>
            <path fill="#3b5998" style="fill: var(--color3, #3b5998)" d="M30.235 0h-28.469c-0.975 0-1.765 0.791-1.765 1.765v28.469c0 0.976 0.791 1.765 1.765 1.765h15.325v-12.392h-4.172v-4.828h4.172v-3.567c0-4.132 2.525-6.38 6.212-6.38 1.767 0 3.285 0.129 3.728 0.188v4.32h-2.561c-2 0-2.389 0.961-2.389 2.361v3.081h4.779l-0.62 4.84h-4.159v12.376h8.153c0.977 0 1.767-0.789 1.767-1.765v-28.469c0-0.975-0.789-1.765-1.765-1.765z"></path>
        </symbol>
        <symbol id="map" viewBox="0 0 32 32">
            <title>map</title>
            <path d="M21 6l-10-4-11 4v24l11-4 10 4 11-4v-24l-11 4zM12 4.554l8 3.2v19.692l-8-3.2v-19.692zM2 7.401l8-2.909v19.744l-8 2.909v-19.744zM30 24.599l-8 2.909v-19.744l8-2.909v19.744z"></path>
        </symbol>
        <symbol id="minus-circle" viewBox="0 0 24 24">
            <title>minus-circle</title>
            <path d="M12 1c-6.1 0-11 4.9-11 11s4.9 11 11 11 11-4.9 11-11-4.9-11-11-11zM12 21c-5 0-9-4-9-9s4-9 9-9c5 0 9 4 9 9s-4 9-9 9z"></path>
            <path d="M16 11h-8c-0.6 0-1 0.4-1 1s0.4 1 1 1h8c0.6 0 1-0.4 1-1s-0.4-1-1-1z"></path>
        </symbol>
        <symbol id="plus-circle" viewBox="0 0 24 24">
            <title>plus-circle</title>
            <path d="M12 1c-6.1 0-11 4.9-11 11s4.9 11 11 11 11-4.9 11-11-4.9-11-11-11zM12 21c-5 0-9-4-9-9s4-9 9-9c5 0 9 4 9 9s-4 9-9 9z"></path>
            <path d="M16 11h-3v-3c0-0.6-0.4-1-1-1s-1 0.4-1 1v3h-3c-0.6 0-1 0.4-1 1s0.4 1 1 1h3v3c0 0.6 0.4 1 1 1s1-0.4 1-1v-3h3c0.6 0 1-0.4 1-1s-0.4-1-1-1z"></path>
        </symbol>
        <symbol id="menu" viewBox="0 0 24 24">
            <title>menu</title>
            <path d="M21 11h-18c-0.6 0-1 0.4-1 1s0.4 1 1 1h18c0.6 0 1-0.4 1-1s-0.4-1-1-1z"></path>
            <path d="M3 7h18c0.6 0 1-0.4 1-1s-0.4-1-1-1h-18c-0.6 0-1 0.4-1 1s0.4 1 1 1z"></path>
            <path d="M21 17h-18c-0.6 0-1 0.4-1 1s0.4 1 1 1h18c0.6 0 1-0.4 1-1s-0.4-1-1-1z"></path>
        </symbol>
        <symbol id="phone" viewBox="0 0 24 24">
            <title>phone</title>
            <path d="M20.4 13.9c-0.9-0.1-1.8-0.3-2.6-0.6-1.1-0.4-2.3-0.1-3.2 0.7l-0.7 0.7c-1.8-1.2-3.4-2.7-4.6-4.6l0.7-0.7c0.8-0.8 1.1-2.1 0.7-3.2-0.3-0.8-0.5-1.7-0.6-2.6-0.2-1.5-1.5-2.6-3-2.6 0 0 0 0 0 0h-3c-0.1 0-0.2 0-0.3 0-0.8 0.1-1.5 0.5-2 1.1s-0.7 1.4-0.7 2.2c0.3 3.2 1.5 6.4 3.2 9.1 1.6 2.5 3.8 4.7 6.3 6.3 2.7 1.8 5.9 2.9 9.1 3.2 0.1 0 0.2 0 0.3 0 0 0 0 0 0 0 0.8 0 1.6-0.3 2.1-0.9s0.9-1.3 0.9-2.1v-3c0-1.5-1.1-2.8-2.6-3zM21 16.9v3c0 0.3-0.1 0.5-0.3 0.7s-0.4 0.3-0.8 0.3c-2.9-0.3-5.7-1.3-8.2-2.9-2.3-1.4-4.2-3.4-5.7-5.7-1.6-2.5-2.6-5.3-2.9-8.2 0-0.3 0.1-0.5 0.2-0.7 0.2-0.2 0.5-0.4 0.8-0.4h3c0 0 0 0 0 0 0.5 0 0.9 0.4 1 0.9 0.1 1 0.4 2.1 0.8 3 0.1 0.4 0 0.8-0.2 1.1l-1.3 1.2c-0.3 0.3-0.4 0.8-0.2 1.2 1.5 2.7 3.7 4.9 6.4 6.4 0.4 0.2 0.9 0.2 1.2-0.2l1.3-1.3c0.3-0.3 0.7-0.4 1.1-0.2 1 0.4 2 0.6 3 0.8 0.4 0.1 0.8 0.5 0.8 1 0 0 0 0 0 0z"></path>
        </symbol>
        <symbol id="map-pin" viewBox="0 0 24 24">
            <title>map-pin</title>
            <path d="M12 0c-5.5 0-10 4.5-10 10 0 7.4 9.1 13.6 9.4 13.8 0.2 0.1 0.4 0.2 0.6 0.2s0.4-0.1 0.6-0.2c0.3-0.2 9.4-6.4 9.4-13.8 0-5.5-4.5-10-10-10zM12 21.8c-1.9-1.4-8-6.4-8-11.8 0-4.4 3.6-8 8-8s8 3.6 8 8c0 5.4-6.1 10.4-8 11.8z"></path>
            <path d="M12 6c-2.2 0-4 1.8-4 4s1.8 4 4 4c2.2 0 4-1.8 4-4s-1.8-4-4-4zM12 12c-1.1 0-2-0.9-2-2s0.9-2 2-2c1.1 0 2 0.9 2 2s-0.9 2-2 2z"></path>
        </symbol>
        <symbol id="mail" viewBox="0 0 24 24">
            <title>mail</title>
            <path d="M20 3h-16c-1.7 0-3 1.3-3 3v12c0 1.7 1.3 3 3 3h16c1.7 0 3-1.3 3-3v-12c0-1.7-1.3-3-3-3zM4 5h16c0.4 0 0.7 0.2 0.9 0.6l-8.9 6.2-8.9-6.2c0.2-0.4 0.5-0.6 0.9-0.6zM20 19h-16c-0.6 0-1-0.4-1-1v-10.1l8.4 5.9c0.2 0.1 0.4 0.2 0.6 0.2s0.4-0.1 0.6-0.2l8.4-5.9v10.1c0 0.6-0.4 1-1 1z"></path>
        </symbol>
        <symbol id="close" viewBox="0 0 24 24">
            <title>close</title>
            <path d="M18.984 6.422l-5.578 5.578 5.578 5.578-1.406 1.406-5.578-5.578-5.578 5.578-1.406-1.406 5.578-5.578-5.578-5.578 1.406-1.406 5.578 5.578 5.578-5.578z"></path>
        </symbol>
        <symbol id="keyboard_arrow_up" viewBox="0 0 24 24">
            <title>arrow_up</title>
            <path d="M7.406 15.422l-1.406-1.406 6-6 6 6-1.406 1.406-4.594-4.594z"></path>
        </symbol>
        <symbol id="keyboard_arrow_right" viewBox="0 0 24 24">
            <title>arrow_right</title>
            <path d="M8.578 16.359l4.594-4.594-4.594-4.594 1.406-1.406 6 6-6 6z"></path>
        </symbol>
        <symbol id="keyboard_arrow_left" viewBox="0 0 24 24">
            <title>arrow_left</title>
            <path d="M15.422 16.078l-1.406 1.406-6-6 6-6 1.406 1.406-4.594 4.594z"></path>
        </symbol>
        <symbol id="keyboard_arrow_down" viewBox="0 0 24 24">
            <title>arrow_down</title>
            <path d="M7.406 7.828l4.594 4.594 4.594-4.594 1.406 1.406-6 6-6-6z"></path>
        </symbol>
    </defs>
</svg>
